<svg width="18" height="16" viewBox="0 0 18 16" fill="none" xmlns="http://www.w3.org/2000/svg">
<path d="M9.45334 1.94759C9.88694 1.47288 10.4141 1.08739 11.0036 0.813907C11.5932 0.54042 12.2332 0.38448 12.8858 0.355298C13.5384 0.326115 14.1905 0.424283 14.8034 0.644002C15.4163 0.863721 15.9777 1.20053 16.4543 1.63455C16.931 2.06856 17.3133 2.59096 17.5786 3.17091C17.8439 3.75085 17.9869 4.37657 17.9991 5.0111C18.0114 5.64562 17.8925 6.27609 17.6497 6.86526C17.4068 7.45443 17.0449 7.99035 16.5853 8.44135L9.40008 15.4881C9.34778 15.5394 9.28552 15.5802 9.2169 15.608C9.14828 15.6358 9.07467 15.6501 9.00032 15.6501C8.92598 15.6501 8.85237 15.6358 8.78375 15.608C8.71513 15.5802 8.65287 15.5394 8.60056 15.4881L1.41538 8.44135C0.543845 7.58662 0.0387531 6.44241 0.00213895 5.23989C-0.0344752 4.03737 0.400118 2.86617 1.21812 1.96289C3.15917 -0.181293 6.59576 -0.188579 8.54731 1.94759L9.00032 2.44302L9.45334 1.94759ZM15.938 2.68418C15.5855 2.295 15.152 1.98304 14.666 1.76898C14.18 1.55493 13.6527 1.44366 13.1191 1.44256C12.5855 1.44145 12.0578 1.55054 11.5709 1.76259C11.084 1.97464 10.649 2.2848 10.2949 2.67252L9.42033 3.62914C9.36756 3.68692 9.30277 3.73317 9.23024 3.76485C9.15771 3.79652 9.07909 3.8129 8.99957 3.8129C8.92005 3.8129 8.84144 3.79652 8.76891 3.76485C8.69638 3.73317 8.63159 3.68692 8.57881 3.62914L7.70504 2.67252C7.37192 2.30433 6.96601 2.00495 6.51143 1.79216C6.05684 1.57937 5.56287 1.45751 5.05885 1.43383C4.55483 1.41016 4.05105 1.48514 3.57745 1.65432C3.10385 1.82351 2.67009 2.08344 2.30195 2.41868C1.93381 2.75393 1.63879 3.15763 1.43444 3.60582C1.23008 4.054 1.12056 4.53752 1.11237 5.02763C1.10418 5.51775 1.19749 6.00446 1.38676 6.45885C1.57603 6.91324 1.8574 7.32604 2.21415 7.67271L9.00032 14.3275L15.7858 7.67271C16.4569 7.01459 16.8459 6.13356 16.8741 5.2076C16.9024 4.28164 16.5678 3.37977 15.938 2.68418Z" fill="black"/>
</svg>
